<mxfile host="app.diagrams.net" modified="2021-03-25T03:06:24.322Z" agent="5.0 (Macintosh; Intel Mac OS X 11_1_0) AppleWebKit/537.36 (KHTML, like Gecko) Chrome/89.0.4389.90 Safari/537.36" etag="XwSMZDeDmGpmHI-Ddb7I" version="14.4.5" type="github">
  <diagram id="kMr3NNGb6NpWYzxWpcu0" name="Page-1">
    <mxGraphModel dx="1298" dy="696" grid="1" gridSize="10" guides="1" tooltips="1" connect="1" arrows="1" fold="1" page="1" pageScale="1" pageWidth="827" pageHeight="1169" math="0" shadow="0">
      <root>
        <mxCell id="0" />
        <mxCell id="1" parent="0" />
        <mxCell id="tuIYgro9U1J_R9lxvnAD-17" value="查询" style="edgeStyle=none;rounded=0;orthogonalLoop=1;jettySize=auto;html=1;exitX=1;exitY=0.25;exitDx=0;exitDy=0;entryX=0;entryY=0.25;entryDx=0;entryDy=0;" edge="1" parent="1" source="tuIYgro9U1J_R9lxvnAD-14" target="tuIYgro9U1J_R9lxvnAD-15">
          <mxGeometry relative="1" as="geometry" />
        </mxCell>
        <mxCell id="tuIYgro9U1J_R9lxvnAD-14" value="" style="rounded=0;whiteSpace=wrap;html=1;" vertex="1" parent="1">
          <mxGeometry x="130" y="110" width="30" height="240" as="geometry" />
        </mxCell>
        <mxCell id="tuIYgro9U1J_R9lxvnAD-18" style="edgeStyle=orthogonalEdgeStyle;rounded=0;orthogonalLoop=1;jettySize=auto;html=1;exitX=1;exitY=0.25;exitDx=0;exitDy=0;entryX=1;entryY=0.421;entryDx=0;entryDy=0;entryPerimeter=0;" edge="1" parent="1" source="tuIYgro9U1J_R9lxvnAD-15" target="tuIYgro9U1J_R9lxvnAD-15">
          <mxGeometry relative="1" as="geometry">
            <mxPoint x="520" y="210" as="targetPoint" />
            <Array as="points">
              <mxPoint x="530" y="170" />
              <mxPoint x="530" y="211" />
            </Array>
          </mxGeometry>
        </mxCell>
        <mxCell id="tuIYgro9U1J_R9lxvnAD-19" value="处理" style="edgeLabel;html=1;align=center;verticalAlign=middle;resizable=0;points=[];" vertex="1" connectable="0" parent="tuIYgro9U1J_R9lxvnAD-18">
          <mxGeometry x="0.0123" y="-2" relative="1" as="geometry">
            <mxPoint x="-18" as="offset" />
          </mxGeometry>
        </mxCell>
        <mxCell id="tuIYgro9U1J_R9lxvnAD-20" style="edgeStyle=orthogonalEdgeStyle;rounded=0;orthogonalLoop=1;jettySize=auto;html=1;exitX=0;exitY=0.5;exitDx=0;exitDy=0;entryX=1;entryY=0.5;entryDx=0;entryDy=0;" edge="1" parent="1" source="tuIYgro9U1J_R9lxvnAD-15" target="tuIYgro9U1J_R9lxvnAD-14">
          <mxGeometry relative="1" as="geometry" />
        </mxCell>
        <mxCell id="tuIYgro9U1J_R9lxvnAD-21" value="返回" style="edgeLabel;html=1;align=center;verticalAlign=middle;resizable=0;points=[];" vertex="1" connectable="0" parent="tuIYgro9U1J_R9lxvnAD-20">
          <mxGeometry x="0.1037" y="-2" relative="1" as="geometry">
            <mxPoint as="offset" />
          </mxGeometry>
        </mxCell>
        <mxCell id="tuIYgro9U1J_R9lxvnAD-15" value="" style="rounded=0;whiteSpace=wrap;html=1;" vertex="1" parent="1">
          <mxGeometry x="440" y="110" width="30" height="240" as="geometry" />
        </mxCell>
        <mxCell id="tuIYgro9U1J_R9lxvnAD-22" value="请求预谋" style="edgeStyle=orthogonalEdgeStyle;rounded=0;orthogonalLoop=1;jettySize=auto;html=1;exitX=1;exitY=0;exitDx=0;exitDy=0;entryX=1.033;entryY=0.167;entryDx=0;entryDy=0;entryPerimeter=0;" edge="1" parent="1" source="tuIYgro9U1J_R9lxvnAD-14" target="tuIYgro9U1J_R9lxvnAD-14">
          <mxGeometry relative="1" as="geometry" />
        </mxCell>
        <mxCell id="tuIYgro9U1J_R9lxvnAD-23" style="edgeStyle=orthogonalEdgeStyle;rounded=0;orthogonalLoop=1;jettySize=auto;html=1;exitX=1;exitY=0.5;exitDx=0;exitDy=0;entryX=1;entryY=0.95;entryDx=0;entryDy=0;entryPerimeter=0;" edge="1" parent="1" source="tuIYgro9U1J_R9lxvnAD-14" target="tuIYgro9U1J_R9lxvnAD-14">
          <mxGeometry relative="1" as="geometry">
            <Array as="points">
              <mxPoint x="160" y="240" />
              <mxPoint x="180" y="240" />
              <mxPoint x="180" y="338" />
            </Array>
          </mxGeometry>
        </mxCell>
        <mxCell id="tuIYgro9U1J_R9lxvnAD-24" value="返回处理" style="edgeLabel;html=1;align=center;verticalAlign=middle;resizable=0;points=[];" vertex="1" connectable="0" parent="tuIYgro9U1J_R9lxvnAD-23">
          <mxGeometry x="-0.1351" y="-2" relative="1" as="geometry">
            <mxPoint as="offset" />
          </mxGeometry>
        </mxCell>
        <mxCell id="tuIYgro9U1J_R9lxvnAD-28" style="edgeStyle=orthogonalEdgeStyle;rounded=0;orthogonalLoop=1;jettySize=auto;html=1;exitX=0;exitY=0.5;exitDx=0;exitDy=0;exitPerimeter=0;" edge="1" parent="1" source="tuIYgro9U1J_R9lxvnAD-26">
          <mxGeometry relative="1" as="geometry">
            <mxPoint x="530" y="190" as="targetPoint" />
          </mxGeometry>
        </mxCell>
        <mxCell id="tuIYgro9U1J_R9lxvnAD-26" value="Mysql" style="strokeWidth=2;html=1;shape=mxgraph.flowchart.direct_data;whiteSpace=wrap;" vertex="1" parent="1">
          <mxGeometry x="580" y="160" width="50" height="30" as="geometry" />
        </mxCell>
        <mxCell id="tuIYgro9U1J_R9lxvnAD-29" style="edgeStyle=orthogonalEdgeStyle;rounded=0;orthogonalLoop=1;jettySize=auto;html=1;exitX=0;exitY=0.5;exitDx=0;exitDy=0;exitPerimeter=0;" edge="1" parent="1" source="tuIYgro9U1J_R9lxvnAD-27">
          <mxGeometry relative="1" as="geometry">
            <mxPoint x="530" y="190" as="targetPoint" />
            <Array as="points">
              <mxPoint x="540" y="255" />
              <mxPoint x="540" y="200" />
              <mxPoint x="530" y="200" />
            </Array>
          </mxGeometry>
        </mxCell>
        <mxCell id="tuIYgro9U1J_R9lxvnAD-27" value="Redis" style="strokeWidth=2;html=1;shape=mxgraph.flowchart.direct_data;whiteSpace=wrap;" vertex="1" parent="1">
          <mxGeometry x="580" y="240" width="50" height="30" as="geometry" />
        </mxCell>
        <mxCell id="tuIYgro9U1J_R9lxvnAD-32" value="" style="edgeStyle=orthogonalEdgeStyle;rounded=0;orthogonalLoop=1;jettySize=auto;html=1;" edge="1" parent="1" source="tuIYgro9U1J_R9lxvnAD-30" target="tuIYgro9U1J_R9lxvnAD-31">
          <mxGeometry relative="1" as="geometry" />
        </mxCell>
        <mxCell id="tuIYgro9U1J_R9lxvnAD-30" value="查询缓存" style="rounded=1;whiteSpace=wrap;html=1;" vertex="1" parent="1">
          <mxGeometry x="200" y="450" width="110" height="50" as="geometry" />
        </mxCell>
        <mxCell id="tuIYgro9U1J_R9lxvnAD-37" style="edgeStyle=orthogonalEdgeStyle;rounded=0;orthogonalLoop=1;jettySize=auto;html=1;exitX=1;exitY=0.5;exitDx=0;exitDy=0;" edge="1" parent="1" source="tuIYgro9U1J_R9lxvnAD-31" target="tuIYgro9U1J_R9lxvnAD-36">
          <mxGeometry relative="1" as="geometry" />
        </mxCell>
        <mxCell id="tuIYgro9U1J_R9lxvnAD-40" value="是" style="edgeLabel;html=1;align=center;verticalAlign=middle;resizable=0;points=[];" vertex="1" connectable="0" parent="tuIYgro9U1J_R9lxvnAD-37">
          <mxGeometry x="-0.597" y="-1" relative="1" as="geometry">
            <mxPoint as="offset" />
          </mxGeometry>
        </mxCell>
        <mxCell id="tuIYgro9U1J_R9lxvnAD-39" style="edgeStyle=orthogonalEdgeStyle;rounded=0;orthogonalLoop=1;jettySize=auto;html=1;exitX=0;exitY=0.5;exitDx=0;exitDy=0;" edge="1" parent="1" source="tuIYgro9U1J_R9lxvnAD-31" target="tuIYgro9U1J_R9lxvnAD-38">
          <mxGeometry relative="1" as="geometry" />
        </mxCell>
        <mxCell id="tuIYgro9U1J_R9lxvnAD-48" value="否" style="edgeLabel;html=1;align=center;verticalAlign=middle;resizable=0;points=[];" vertex="1" connectable="0" parent="tuIYgro9U1J_R9lxvnAD-39">
          <mxGeometry x="-0.504" y="1" relative="1" as="geometry">
            <mxPoint as="offset" />
          </mxGeometry>
        </mxCell>
        <mxCell id="tuIYgro9U1J_R9lxvnAD-31" value="查询到？" style="rhombus;whiteSpace=wrap;html=1;rounded=1;" vertex="1" parent="1">
          <mxGeometry x="215" y="530" width="80" height="80" as="geometry" />
        </mxCell>
        <mxCell id="tuIYgro9U1J_R9lxvnAD-36" value="返回缓存二进制/序列化" style="rounded=1;whiteSpace=wrap;html=1;" vertex="1" parent="1">
          <mxGeometry x="304" y="640" width="110" height="50" as="geometry" />
        </mxCell>
        <mxCell id="tuIYgro9U1J_R9lxvnAD-44" value="" style="edgeStyle=orthogonalEdgeStyle;rounded=0;orthogonalLoop=1;jettySize=auto;html=1;" edge="1" parent="1" source="tuIYgro9U1J_R9lxvnAD-38" target="tuIYgro9U1J_R9lxvnAD-43">
          <mxGeometry relative="1" as="geometry" />
        </mxCell>
        <mxCell id="tuIYgro9U1J_R9lxvnAD-38" value="查询数据库" style="rounded=1;whiteSpace=wrap;html=1;" vertex="1" parent="1">
          <mxGeometry x="105" y="640" width="110" height="50" as="geometry" />
        </mxCell>
        <mxCell id="tuIYgro9U1J_R9lxvnAD-51" style="edgeStyle=orthogonalEdgeStyle;rounded=0;orthogonalLoop=1;jettySize=auto;html=1;exitX=1;exitY=0.5;exitDx=0;exitDy=0;" edge="1" parent="1" source="tuIYgro9U1J_R9lxvnAD-43" target="tuIYgro9U1J_R9lxvnAD-50">
          <mxGeometry relative="1" as="geometry" />
        </mxCell>
        <mxCell id="tuIYgro9U1J_R9lxvnAD-53" value="是" style="edgeLabel;html=1;align=center;verticalAlign=middle;resizable=0;points=[];" vertex="1" connectable="0" parent="tuIYgro9U1J_R9lxvnAD-51">
          <mxGeometry x="-0.2762" y="-4" relative="1" as="geometry">
            <mxPoint as="offset" />
          </mxGeometry>
        </mxCell>
        <mxCell id="tuIYgro9U1J_R9lxvnAD-52" style="edgeStyle=orthogonalEdgeStyle;rounded=0;orthogonalLoop=1;jettySize=auto;html=1;exitX=0;exitY=0.5;exitDx=0;exitDy=0;entryX=0.5;entryY=0;entryDx=0;entryDy=0;" edge="1" parent="1" source="tuIYgro9U1J_R9lxvnAD-43" target="tuIYgro9U1J_R9lxvnAD-49">
          <mxGeometry relative="1" as="geometry" />
        </mxCell>
        <mxCell id="tuIYgro9U1J_R9lxvnAD-54" value="否" style="edgeLabel;html=1;align=center;verticalAlign=middle;resizable=0;points=[];" vertex="1" connectable="0" parent="tuIYgro9U1J_R9lxvnAD-52">
          <mxGeometry x="-0.3905" relative="1" as="geometry">
            <mxPoint as="offset" />
          </mxGeometry>
        </mxCell>
        <mxCell id="tuIYgro9U1J_R9lxvnAD-43" value="查询到？" style="rhombus;whiteSpace=wrap;html=1;rounded=1;" vertex="1" parent="1">
          <mxGeometry x="120" y="730" width="80" height="80" as="geometry" />
        </mxCell>
        <mxCell id="tuIYgro9U1J_R9lxvnAD-58" value="" style="edgeStyle=orthogonalEdgeStyle;rounded=0;orthogonalLoop=1;jettySize=auto;html=1;" edge="1" parent="1" source="tuIYgro9U1J_R9lxvnAD-49" target="tuIYgro9U1J_R9lxvnAD-57">
          <mxGeometry relative="1" as="geometry" />
        </mxCell>
        <mxCell id="tuIYgro9U1J_R9lxvnAD-49" value="查询归档库" style="rounded=1;whiteSpace=wrap;html=1;" vertex="1" parent="1">
          <mxGeometry x="10" y="820" width="110" height="50" as="geometry" />
        </mxCell>
        <mxCell id="tuIYgro9U1J_R9lxvnAD-56" value="" style="edgeStyle=orthogonalEdgeStyle;rounded=0;orthogonalLoop=1;jettySize=auto;html=1;" edge="1" parent="1" source="tuIYgro9U1J_R9lxvnAD-50" target="tuIYgro9U1J_R9lxvnAD-55">
          <mxGeometry relative="1" as="geometry" />
        </mxCell>
        <mxCell id="tuIYgro9U1J_R9lxvnAD-50" value="塞入缓存" style="rounded=1;whiteSpace=wrap;html=1;" vertex="1" parent="1">
          <mxGeometry x="200" y="820" width="110" height="50" as="geometry" />
        </mxCell>
        <mxCell id="tuIYgro9U1J_R9lxvnAD-55" value="返回" style="rounded=1;whiteSpace=wrap;html=1;" vertex="1" parent="1">
          <mxGeometry x="200" y="920" width="110" height="50" as="geometry" />
        </mxCell>
        <mxCell id="tuIYgro9U1J_R9lxvnAD-60" style="edgeStyle=orthogonalEdgeStyle;rounded=0;orthogonalLoop=1;jettySize=auto;html=1;exitX=1;exitY=0.5;exitDx=0;exitDy=0;entryX=0;entryY=0.5;entryDx=0;entryDy=0;" edge="1" parent="1" source="tuIYgro9U1J_R9lxvnAD-57" target="tuIYgro9U1J_R9lxvnAD-50">
          <mxGeometry relative="1" as="geometry" />
        </mxCell>
        <mxCell id="tuIYgro9U1J_R9lxvnAD-61" value="是" style="edgeLabel;html=1;align=center;verticalAlign=middle;resizable=0;points=[];" vertex="1" connectable="0" parent="tuIYgro9U1J_R9lxvnAD-60">
          <mxGeometry x="-0.1956" relative="1" as="geometry">
            <mxPoint x="1" as="offset" />
          </mxGeometry>
        </mxCell>
        <mxCell id="tuIYgro9U1J_R9lxvnAD-62" value="否" style="edgeStyle=orthogonalEdgeStyle;rounded=0;orthogonalLoop=1;jettySize=auto;html=1;exitX=0.5;exitY=1;exitDx=0;exitDy=0;entryX=0.573;entryY=1.02;entryDx=0;entryDy=0;entryPerimeter=0;" edge="1" parent="1" source="tuIYgro9U1J_R9lxvnAD-57" target="tuIYgro9U1J_R9lxvnAD-55">
          <mxGeometry relative="1" as="geometry" />
        </mxCell>
        <mxCell id="tuIYgro9U1J_R9lxvnAD-57" value="查询到？" style="rhombus;whiteSpace=wrap;html=1;rounded=1;" vertex="1" parent="1">
          <mxGeometry x="25" y="935" width="80" height="80" as="geometry" />
        </mxCell>
      </root>
    </mxGraphModel>
  </diagram>
</mxfile>
